PathFileType	4	(X/Y/Z)	1103211_Cal01.trc	
DataRate	CameraRate	NumFrames	NumMarkers	Units	OrigDataRate	OrigDataStartFrame	OrigNumFrames
128	128	4	46	mm	128	254	337
Frame#	Time    CLAV			RSHO			LSHO			C7			T10			RASI			LASI			RPSI			LPSI			LGTR			RGTR			LMFC			RMFC			LANK			RANK			LMMA			RMMA			LHEE			RHEE			LMT5			RMT5			LTOE			RTOE			RELB			RWRA			RWRB			RFIN			LELB			LWRB			LWRA			LFIN			RFM2			LFM2			LKNE			RKNE			RTP2			RTP3			RTA3			LTP2			LTP3			LBHD			RFHD			RBHD			LUPA			LFRA			RFRA
        X1	Y1	Z1	X3	Y3	Z3	X4	Y4	Z4	X5	Y5	Z5	X6	Y6	Z6	X8	Y8	Z8	X9	Y9	Z9	X10	Y10	Z10	X11	Y11	Z11	X12	Y12	Z12	X13	Y13	Z13	X16	Y16	Z16	X17	Y17	Z17	X22	Y22	Z22	X23	Y23	Z23	X24	Y24	Z24	X25	Y25	Z25	X26	Y26	Z26	X27	Y27	Z27	X28	Y28	Z28	X29	Y29	Z29	X30	Y30	Z30	X31	Y31	Z31	X32	Y32	Z32	X33	Y33	Z33	X34	Y34	Z34	X35	Y35	Z35	X36	Y36	Z36	X37	Y37	Z37	X38	Y38	Z38	X39	Y39	Z39	X44	Y44	Z44	X53	Y53	Z53	X58	Y58	Z58	X59	Y59	Z59	X61	Y61	Z61	X62	Y62	Z62	X65	Y65	Z65	X67	Y67	Z67	X68	Y68	Z68	X71	Y71	Z71	X72	Y72	Z72	X73	Y73	Z73	X74	Y74	Z74	X75	Y75	Z75	X77	Y77	Z77
253	0.84	188.37819	1375.03796	-48.21303	87.45569	1424.39722	88.70787	86.33011	1433.24475	-192.7484	48.46056	1429.49207	-47.12935	14.16458	1134.98828	-53.44392	178.29274	946.98291	59.75386	174.31009	953.14655	-167.53133	-2.20609	955.54932	-2.39174	-3.44237	954.61096	-100.42601	108.73938	868.9715	-218.64604	108.09744	858.00684	117.68378	62.88095	466.93799	-84.71284	65.73248	471.39609	-16.55067	57.37642	90.95917	-207.08855	55.89404	87.27377	108.47975	73.39557	98.65585	-121.42064	80.57771	92.72253	24.80882	-14.71317	59.78022	-159.36671	-15.87468	62.96339	60.12248	168.35561	30.74522	-243.65361	165.70154	40.88709	157.6539	212.9333	64.94652	-176.10612	214.54054	65.24107	91.03377	60.24463	1295.98022	346.52142	90.75424	1309.49744	591.70184	56.70322	1244.66638	585.74036	54.37866	1297.80359	666.34906	42.20101	1301.48645	-436.67291	36.70012	1263.22546	-686.01074	68.98074	1324.76746	-679.987	30.69097	1319.63782	-759.31799	175.77531	717.61371	116.84528	165.61307	719.00732	-218.78371	77.32024	485.1965	-210.10594	88.12758	479.10925	108.10168	54.86995	268.91824	125.02328	54.40106	182.65662	114.1057	107.93694	232.79901	64.49098	65.24789	278.85458	-226.13234	62.10661	193.82709	-216.99947	72.91682	1608.3175	-128.99391	176.84663	1625.71912	38.03679	186.03233	1634.71521	-109.33058	62.62402	1393.81677	-293.26855	25.35267	1307.00977	-584.94299	43.91625	1292.36206	430.59793
254	0.84333	188.33656	1375.01965	-48.21324	87.39838	1424.37134	88.69394	86.29543	1433.2467	-192.75102	48.46005	1429.46692	-47.11696	14.14378	1134.97253	-53.48799	178.24617	946.974	59.80026	174.31244	953.14209	-167.49715	-2.23872	955.55151	-2.38432	-3.45367	954.5813	-100.42744	108.73824	868.97644	-218.64665	108.09579	858.00885	117.68443	62.875	466.93945	-84.71428	65.76077	471.39453	-16.55827	57.4325	90.91762	-207.1049	55.89319	87.29985	108.5041	73.36751	98.65573	-121.43132	80.55806	92.74302	24.84831	-14.70589	59.75567	-159.35127	-15.85927	62.90357	60.1051	168.38963	30.75158	-243.64833	165.7139	40.85046	157.64957	212.92928	64.8995	-176.12724	214.52303	65.24274	91.03468	60.24684	1295.9281	346.52103	90.71376	1309.43286	591.69373	56.72421	1244.63745	585.73523	54.35849	1297.72058	666.3252	42.21774	1301.45178	-436.67175	36.70256	1263.13965	-686.01758	68.98695	1324.69666	-679.98511	30.67239	1319.53516	-759.27753	175.7892	717.57983	116.85583	165.64111	718.99341	-218.77065	77.31364	485.18698	-210.10979	88.17365	479.06021	108.10919	54.85779	268.91711	125.04326	54.40086	182.65633	114.10596	107.97641	232.81877	64.4881	65.28032	278.8678	-226.12129	62.10257	193.81735	-217.00017	72.90038	1608.2959	-129.03429	176.80434	1625.7002	38.03897	185.99483	1634.71069	-109.36018	62.57222	1393.79456	-293.24457	25.35355	1306.96008	-584.93982	43.86949	1292.35217	430.59787
255	0.84667	188.32567	1375.01123	-48.20177	87.39256	1424.36792	88.67842	86.27933	1433.24219	-192.7494	48.40581	1429.45386	-47.17632	14.14146	1134.99341	-53.48857	178.25484	946.98389	59.76599	174.27827	953.17444	-167.52608	-2.24309	955.52728	-2.38544	-3.47644	954.55072	-100.42488	108.73518	868.97559	-218.64214	108.10701	857.98676	117.71622	62.91513	466.96671	-84.71208	65.75638	471.40253	-16.55577	57.45085	90.91296	-207.12157	55.88017	87.27798	108.49924	73.38289	98.65826	-121.3987	80.57138	92.74651	24.82996	-14.68302	59.76898	-159.35594	-15.88793	62.88039	60.12978	168.37651	30.72066	-243.662	165.6904	40.87469	157.68422	212.93236	64.90873	-176.09737	214.54146	65.22533	91.05867	60.24374	1295.89917	346.522	90.71632	1309.42371	591.69086	56.72961	1244.59094	585.73193	54.36836	1297.65869	666.33716	42.17974	1301.46667	-436.69415	36.66705	1263.09021	-686.03741	68.97325	1324.63293	-679.98682	30.64166	1319.47449	-759.28888	175.79478	717.58307	116.83543	165.55185	718.995	-218.81221	77.72736	485.23312	-210.20464	88.16498	479.07861	108.11389	54.90411	268.88907	125.03016	54.41992	182.68771	114.11703	107.99403	232.79254	64.49965	65.29784	278.84491	-226.11778	62.13062	193.82957	-217.00468	72.86104	1608.30786	-129.08702	176.78456	1625.67322	38.01814	186.14931	1634.66833	-109.33449	62.59215	1393.77295	-293.25568	25.35016	1306.88623	-584.94659	43.87414	1292.30676	430.56302
256	0.85	188.31776	1375.00427	-48.23131	87.35481	1424.3811	88.68188	86.27193	1433.24951	-192.76854	48.39531	1429.45605	-47.17149	14.14547	1134.97485	-53.49168	178.23216	946.99811	59.75566	174.23645	953.1701	-167.53447	-2.2717	955.51855	-2.38168	-3.51308	954.5376	-100.41933	108.74438	868.97229	-218.68825	108.15672	858.02679	117.69798	62.94931	466.95972	-84.69984	65.75723	471.40671	-16.55739	57.45995	90.91158	-207.11546	55.88272	87.27785	108.50169	73.3974	98.65527	-121.41991	80.59424	92.7928	24.80965	-14.68432	59.76818	-159.36238	-15.98836	63.18229	60.34279	168.37668	30.71363	-243.66182	165.71468	40.86966	157.66202	212.9369	64.92525	-176.10292	214.5519	65.24759	91.04991	60.27812	1295.8877	346.50723	90.70369	1309.36365	591.68378	56.71872	1244.56189	585.69476	54.26091	1297.58545	666.41699	42.18458	1301.42053	-436.69189	36.71075	1263.02356	-685.98718	68.96886	1324.5719	-679.9903	30.66062	1319.41187	-759.25433	175.83955	717.57788	116.83105	165.6517	719.04584	-218.78658	77.38867	485.20071	-210.11626	88.17773	479.0871	108.13374	54.85918	268.88803	125.16862	54.43433	182.68799	114.15137	108.00337	232.79858	64.49815	65.30922	278.87274	-226.12556	62.13478	193.84016	-217.01112	72.87247	1608.29968	-129.05797	176.76894	1625.6936	38.0153	186.17235	1634.66638	-109.3333	62.87523	1393.74829	-293.43195	25.34986	1306.88074	-584.95123	43.86381	1292.25317	430.54034
